<svg xmlns="http://www.w3.org/2000/svg" xml:space="preserve" viewBox="0 0 242 242"><path fill="none" d="M1 90V1h242v242H1V90m57.542 140.007c26.332 0 52.667.22 78.996-.102 11.025-.135 21.698-2.258 31.04-9.056 5.842-4.252 11.82-8.802 18.452-11.385 13.992-5.449 20.681-15.758 20.808-29.875.391-43.641.462-87.293-.053-130.932-.199-16.789-10.143-29.254-26.264-33.742-9.809-2.731-20.181-4.364-30.356-4.67-22.645-.683-45.325-.225-67.99-.208-.446 0-.891.285-1.444.474l-.747 4.676h-9.478l-.745 4.562c-3.332.217-8.052-.633-8.903.806-2.2 3.716-5.056 2.009-7.622 2.39-1.707.252-3.482.047-5.422.047v207.015h9.728z"/><path fill="#730DE7" d="M58.05 230.007h-9.236V22.992c1.94 0 3.715.205 5.422-.048 2.566-.38 5.422 1.327 7.622-2.389.851-1.44 5.571-.59 8.903-.806l.745-4.562h9.478l.747-4.676c.553-.189.998-.474 1.444-.474 22.665-.017 45.345-.475 67.99.208 10.175.306 20.547 1.939 30.356 4.67 16.12 4.488 26.065 16.953 26.264 33.742.515 43.64.444 87.29.053 130.932-.127 14.117-6.816 24.426-20.808 29.875-6.632 2.583-12.61 7.133-18.452 11.385-9.342 6.798-20.015 8.92-31.04 9.056-26.329.323-52.664.103-79.489.102M162.88 35.53c-2.151-1.238-4.253-2.573-6.463-3.698-11.28-5.743-23.689-6.304-35.848-6.645-21.976-.617-43.981-.182-65.974-.16-1.25 0-2.5.242-3.663.362v202.049c.584.24.882.47 1.178.468 31.285-.296 62.61.215 93.84-1.25 16.923-.795 27.654-9.624 30.605-26.16.729-4.082 1.297-8.26 1.307-12.395.09-39.152.168-78.305-.031-117.457-.068-13.358-3.159-25.784-14.95-35.114z"/><path fill="none" d="M163.168 35.749c11.504 9.11 14.595 21.537 14.663 34.895.2 39.152.121 78.305.03 117.457-.009 4.136-.577 8.313-1.306 12.396-2.95 16.535-13.682 25.364-30.605 26.158-31.23 1.466-62.555.955-93.84 1.25-.296.004-.594-.228-1.178-.467V25.388c1.162-.12 2.413-.36 3.663-.362 21.993-.021 43.998-.456 65.974.161 12.159.341 24.569.902 35.848 6.645 2.21 1.125 4.312 2.46 6.75 3.917M119.966 144.5c-.011-20.979.027-41.957-.075-62.935a99.912 99.912 0 0 0-.927-12.934c-.71-5.225-4.355-7.71-9.748-7.077v130.213c7.024-.846 9.406-3.255 9.745-10.847.527-11.798.689-23.612 1.005-36.42z"/><path fill="#710AE7" d="M119.965 145c-.316 12.308-.478 24.122-1.005 35.92-.339 7.592-2.721 10.001-9.745 10.847V61.554c5.393-.634 9.038 1.852 9.748 7.077.581 4.276.906 8.619.927 12.934.102 20.978.064 41.956.075 63.435z"/></svg>