<svg xmlns="http://www.w3.org/2000/svg" xml:space="preserve" viewBox="0 0 242 242"><path fill="none" d="M1 90V1h242v242H1V90m51.563 140.01c26.487 0 52.976.202 79.459-.105 10.167-.117 20.656-1.272 28.754-8.052 7.284-6.099 15.536-9.999 23.91-13.954 9.264-4.375 14.946-11.625 16.323-21.778 1.005-7.404 1.8-14.896 1.872-22.356.24-24.985.227-49.975.082-74.961-.077-13.316-.465-26.636-.997-39.943-.651-16.266-10.022-29.484-25.643-33.757-10.608-2.902-21.812-4.498-32.814-4.896-20.795-.75-41.638-.218-62.46-.218h-5l-1.635 5.096H65.7l-1.36 4.625c-3.15.262-7.329-.548-8.455.945-2.292 3.037-4.831 2.098-7.403 2.307-1.745.142-3.512.027-5.507.027v207.02h9.587z"/><path fill="#00C54F" d="M52.077 230.01h-9.101V22.99c1.995 0 3.762.115 5.507-.027 2.572-.21 5.111.73 7.403-2.307 1.126-1.493 5.304-.683 8.456-.945l1.36-4.625h8.712L76.05 9.99h4.999c20.822 0 41.665-.533 62.46.218 11.002.398 22.206 1.994 32.814 4.896 15.621 4.273 24.992 17.49 25.643 33.757.532 13.307.92 26.627.997 39.943.145 24.986.159 49.976-.082 74.96-.071 7.461-.867 14.953-1.872 22.357-1.377 10.153-7.059 17.403-16.323 21.778-8.374 3.955-16.626 7.855-23.91 13.954-8.098 6.78-18.587 7.935-28.754 8.052-26.483.307-52.972.105-79.945.106M44.821 60.5v167.49c6.78 0 12.596.06 18.41-.011 25.299-.312 50.668.387 75.874-1.323 21.04-1.428 31.525-12.69 31.774-31.65.58-44.123.592-88.266-.101-132.387-.254-16.151-9.453-27.966-25.183-32.399-10.748-3.029-22.163-4.572-33.347-4.985-20.8-.767-41.647-.23-62.475-.211-1.45 0-2.901.198-4.952.348V60.5z"/><path fill="none" d="M44.821 60V25.372c2.05-.15 3.501-.347 4.952-.348 20.828-.019 41.676-.556 62.475.211 11.184.413 22.6 1.956 33.347 4.985 15.73 4.433 24.93 16.248 25.183 32.4.693 44.12.681 88.263.101 132.386-.249 18.96-10.734 30.222-31.774 31.65-25.206 1.71-50.575 1.01-75.874 1.323-5.814.071-11.63.01-18.41.01V60M113.985 98.5c0-2.496.069-4.994-.013-7.487-.247-7.471-.148-14.985-.965-22.396-.631-5.723-4.243-7.853-9.691-6.925v130.01c6.273-.536 8.718-2.53 9.46-8.413.684-5.432 1.104-10.933 1.135-16.406.13-22.46.066-44.922.074-68.383z"/><path fill="#00C74F" d="M113.985 99c-.008 22.961.056 45.422-.074 67.883-.031 5.473-.451 10.974-1.136 16.406-.74 5.883-3.186 7.877-9.46 8.414V61.692c5.45-.928 9.06 1.202 9.692 6.925.817 7.411.718 14.925.965 22.396.082 2.493.013 4.991.013 7.987z"/></svg>