<?xml version="1.0" standalone="no"?>
<!DOCTYPE svg PUBLIC "-//W3C//DTD SVG 20010904//EN"
 "http://www.w3.org/TR/2001/REC-SVG-20010904/DTD/svg10.dtd">
<svg version="1.0" xmlns="http://www.w3.org/2000/svg"
 width="744.000000pt" height="1052.000000pt" viewBox="0 0 744.000000 1052.000000"
 preserveAspectRatio="xMidYMid meet">

<g transform="translate(0.000000,1052.000000) scale(0.100000,-0.100000)"
fill="#ffffff" stroke="none">
<path d="M3106 7350 c-351 -584 -636 -1063 -634 -1065 3 -3 157 36 343 85 187
50 343 89 347 88 5 -2 -253 -444 -571 -983 -319 -539 -579 -980 -578 -982 1
-1 245 31 542 71 297 41 541 72 543 71 2 -2 -299 -429 -668 -950 -369 -521
-670 -948 -668 -951 3 -2 373 133 823 301 450 168 820 303 822 301 4 -3 -112
-1146 -122 -1198 l-4 -28 449 0 c330 0 450 3 450 11 0 7 -43 280 -95 607 -53
328 -94 601 -93 607 2 7 302 -58 842 -182 461 -107 841 -192 843 -189 3 2
-248 379 -557 836 -309 457 -560 833 -558 834 2 2 156 -21 343 -50 187 -30
343 -53 346 -51 4 1 -222 414 -501 917 l-508 915 353 5 352 5 -594 1005 c-326
553 -597 1011 -602 1018 -5 8 -232 -360 -645 -1048z"/>
</g>
</svg>
